<?xml version="1.0" encoding="utf-8"?>
<svg xmlns="http://www.w3.org/2000/svg" style="margin: auto; background: rgb(245, 255, 250); display: block; shape-rendering: auto;" width="239" height="121" preserveAspectRatio="xMidYMid">
<style type="text/css">
  text {
    text-anchor: middle; font-size: 80px; opacity: 0;
  }
</style>
<g style="transform-origin:119.5px 60.5px;transform:scale(1)">
<g transform="translate(119.5,60.5)">
  <g transform="translate(0,0)"><g class="path" style="transform: matrix(1, 0, 0, 1, 0, 14.925); opacity: 0.05; transform-origin: -88.6px -7.21094px; animation: 1.66667s linear 0s 1 normal forwards running float-btt-in-ff05b9db-5156-4c18-bb88-d4e26f2b86c7;"><path d="M26-0.88L26-0.88L26-0.88Q30-0.88 33.08-3.04L33.08-3.04L33.08-3.04Q36.16-5.20 36.16-9.56L36.16-9.56L36.16-9.56Q36.16-13.92 32.84-16.24L32.84-16.24L32.84-16.24Q29.52-18.56 23.40-20.28L23.40-20.28L23.40-20.28Q17.28-22 14.52-23.28L14.52-23.28L14.52-23.28Q11.76-24.56 9.28-26.64L9.28-26.64L9.28-26.64Q4.32-30.80 4.32-39.52L4.32-39.52L4.32-39.52Q4.32-46.64 9.40-51.76L9.40-51.76L9.40-51.76Q14.48-56.88 23.28-56.88L23.28-56.88L23.28-56.88Q27.52-56.88 32.12-55.64L32.12-55.64L32.12-55.64Q36.72-54.40 37.84-54.40L37.84-54.40L37.84-54.40Q38.96-54.40 39.84-56L39.84-56L40.72-56L41.28-39.84L40-39.84L40-39.84Q36.16-46.80 31.96-51L31.96-51L31.96-51Q27.76-55.20 22.84-55.20L22.84-55.20L22.84-55.20Q17.92-55.20 15.20-52.92L15.20-52.92L15.20-52.92Q12.48-50.64 12.48-46.84L12.48-46.84L12.48-46.84Q12.48-43.04 15.72-41L15.72-41L15.72-41Q18.96-38.96 23.68-37.68L23.68-37.68L23.68-37.68Q28.40-36.40 29.88-35.92L29.88-35.92L29.88-35.92Q31.36-35.44 33.56-34.60L33.56-34.60L33.56-34.60Q35.76-33.76 37.16-32.84L37.16-32.84L37.16-32.84Q38.56-31.92 40.12-30.52L40.12-30.52L40.12-30.52Q41.68-29.12 42.56-27.44L42.56-27.44L42.56-27.44Q44.72-23.60 44.72-18.32L44.72-18.32L44.72-18.32Q44.72-9.68 39.32-4.44L39.32-4.44L39.32-4.44Q33.92 0.80 25.12 0.80L25.12 0.80L25.12 0.80Q20.56 0.80 14.68-0.40L14.68-0.40L14.68-0.40Q8.80-1.60 8.16-1.60L8.16-1.60L8.16-1.60Q7.04-1.60 6 0.80L6 0.80L4.88 0.80L4.08-18.24L5.44-18.24L5.44-18.24Q8.96-11.28 14.44-6.08L14.44-6.08L14.44-6.08Q19.92-0.88 26-0.88" fill="#134284" stroke="none" stroke-width="none" transform="translate(-112.99996948242188,20.829063110351562)" style="fill: rgb(19, 66, 132);"></path></g><g class="path" style="transform: matrix(1, 0, 0, 1, 0, 14.925); opacity: 0.05; transform-origin: -52.24px -30.2109px; animation: 1.66667s linear 0.183333s 1 normal forwards running float-btt-in-ff05b9db-5156-4c18-bb88-d4e26f2b86c7;"><path d="M60.56-43.60L60.56-43.60L60.56-43.60Q56.32-43.60 54.52-45.76L54.52-45.76L54.52-45.76Q52.72-47.92 52.72-51.12L52.72-51.12L52.72-51.12Q52.72-54.32 54.68-56.40L54.68-56.40L54.68-56.40Q56.64-58.48 60.64-58.48L60.64-58.48L60.64-58.48Q64.64-58.48 66.72-56.60L66.72-56.60L66.72-56.60Q68.80-54.72 68.80-51.24L68.80-51.24L68.80-51.24Q68.80-47.76 66.80-45.68L66.80-45.68L66.80-45.68Q64.80-43.60 60.56-43.60" fill="#134284" stroke="none" stroke-width="none" transform="translate(-112.99996948242188,20.829063110351562)" style="fill: rgb(19, 66, 132);"></path></g><g class="path" style="transform: matrix(1, 0, 0, 1, 0, 14.925); opacity: 0.05; transform-origin: -52.48px 1.78906px; animation: 1.66667s linear 0.366667s 1 normal forwards running float-btt-in-ff05b9db-5156-4c18-bb88-d4e26f2b86c7;"><path d="M48.48-36.64L48.48-38.08L68.08-38.08L68.08-1.44L72.56-1.44L72.56 0L48.80 0L48.80-1.44L53.20-1.44L53.20-36.64L48.48-36.64" fill="#134284" stroke="none" stroke-width="none" transform="translate(-112.99996948242188,20.829063110351562)" style="fill: rgb(19, 66, 132);"></path></g><g class="path" style="transform: matrix(1, 0, 0, 1, 0, 14.925); opacity: 0.05; transform-origin: -18.76px 6.18906px; animation: 1.66667s linear 0.55s 1 normal forwards running float-btt-in-ff05b9db-5156-4c18-bb88-d4e26f2b86c7;"><path d="M106.24-42.24L106.24-42.24L108.48-43.60L108.48-43.60Q108.96-46.08 106.56-46.08L106.56-46.08L106.56-46.08Q103.12-46.08 103.12-40.80L103.12-40.80L103.12-40.80Q103.12-38.72 103.68-36L103.68-36L103.68-36Q109.76-31.92 109.76-25.56L109.76-25.56L109.76-25.56Q109.76-19.20 105.36-15.68L105.36-15.68L105.36-15.68Q100.96-12.16 93.44-12.16L93.44-12.16L93.44-12.16Q90.32-12.16 86.96-12.80L86.96-12.80L86.96-12.80Q83.44-10.56 83.44-9.44L83.44-9.44L83.44-9.44Q83.44-8.32 88.56-8.32L88.56-8.32L96.72-8.32L96.72-8.32Q114.88-8.32 114.88 4.72L114.88 4.72L114.88 4.72Q114.88 11.76 109.40 15.88L109.40 15.88L109.40 15.88Q103.92 20 92.32 20L92.32 20L92.32 20Q72.56 20 72.56 11.44L72.56 11.44L72.56 11.44Q72.56 6.80 78.72 5.04L78.72 5.04L83.52 7.20L83.52 7.20Q82.88 9.52 82.88 11.60L82.88 11.60L82.88 11.60Q82.88 18.48 93.12 18.48L93.12 18.48L93.12 18.48Q99.36 18.48 102.72 16.16L102.72 16.16L102.72 16.16Q106.08 13.84 106.08 10.40L106.08 10.40L106.08 10.40Q106.08 6.96 104.04 5.80L104.04 5.80L104.04 5.80Q102 4.64 95.92 4.64L95.92 4.64L88.16 4.64L88.16 4.64Q81.68 4.64 78.88 2.48L78.88 2.48L78.88 2.48Q76.08 0.32 76.08-2.84L76.08-2.84L76.08-2.84Q76.08-6 78.08-8.12L78.08-8.12L78.08-8.12Q80.08-10.24 85.20-13.36L85.20-13.36L85.20-13.36Q75.92-16 75.92-25.52L75.92-25.52L75.92-25.52Q75.92-31.52 80.24-35.20L80.24-35.20L80.24-35.20Q84.56-38.88 93.20-38.88L93.20-38.88L93.20-38.88Q98.40-38.88 102.08-36.88L102.08-36.88L102.08-36.88Q101.60-39.04 101.60-40.80L101.60-40.80L101.60-40.80Q101.60-45.28 104-47.28L104-47.28L104-47.28Q106.40-49.28 109.36-49.28L109.36-49.28L109.36-49.28Q112.32-49.28 114.12-47.72L114.12-47.72L114.12-47.72Q115.92-46.16 115.92-43.44L115.92-43.44L115.92-43.44Q115.92-40.72 114.48-39.40L114.48-39.40L114.48-39.40Q113.04-38.08 111-38.08L111-38.08L111-38.08Q108.96-38.08 107.64-39.16L107.64-39.16L107.64-39.16Q106.32-40.24 106.24-42.24zM89.28-27.28L89.28-27.28L89.28-22.96L89.28-22.96Q89.28-17.60 90.20-15.68L90.20-15.68L90.20-15.68Q91.12-13.76 93-13.76L93-13.76L93-13.76Q94.88-13.76 95.72-15.64L95.72-15.64L95.72-15.64Q96.56-17.52 96.56-23.36L96.56-23.36L96.56-27.28L96.56-27.28Q96.56-33.52 95.76-35.48L95.76-35.48L95.76-35.48Q94.96-37.44 93.08-37.44L93.08-37.44L93.08-37.44Q91.20-37.44 90.24-35.40L90.24-35.40L90.24-35.40Q89.28-33.36 89.28-27.28" fill="#134284" stroke="none" stroke-width="none" transform="translate(-112.99996948242188,20.829063110351562)" style="fill: rgb(19, 66, 132);"></path></g><g class="path" style="transform: matrix(1, 0, 0, 1, 0, 14.925); opacity: 0.05; transform-origin: 37.84px 1.38906px; animation: 1.66667s linear 0.733333s 1 normal forwards running float-btt-in-ff05b9db-5156-4c18-bb88-d4e26f2b86c7;"><path d="M115.92-36.64L115.92-38.08L135.20-38.08L135.20-30.72L135.20-30.72Q137.84-38.88 146.84-38.88L146.84-38.88L146.84-38.88Q155.84-38.88 157.76-30.24L157.76-30.24L157.76-30.24Q160.56-38.88 169.52-38.88L169.52-38.88L169.52-38.88Q181.28-38.88 181.28-25.52L181.28-25.52L181.28-1.44L185.76-1.44L185.76 0L163.60 0L163.60-1.44L166.40-1.44L166.40-27.44L166.40-27.44Q166.40-33.52 165.36-34.56L165.36-34.56L165.36-34.56Q164.88-35.04 164.08-35.04L164.08-35.04L164.08-35.04Q161.76-35.04 160-31.92L160-31.92L160-31.92Q158.24-28.80 158.24-24L158.24-24L158.24-1.44L161.12-1.44L161.12 0L140.56 0L140.56-1.44L143.36-1.44L143.36-27.44L143.36-27.44Q143.36-33.52 142.32-34.56L142.32-34.56L142.32-34.56Q141.84-35.04 141.04-35.04L141.04-35.04L141.04-35.04Q138.80-35.04 137-31.64L137-31.64L137-31.64Q135.20-28.24 135.20-23.52L135.20-23.52L135.20-1.44L138.08-1.44L138.08 0L115.92 0L115.92-1.44L120.32-1.44L120.32-36.64L115.92-36.64" fill="#134284" stroke="none" stroke-width="none" transform="translate(-112.99996948242188,20.829063110351562)" style="fill: rgb(19, 66, 132);"></path></g><g class="path" style="transform: matrix(1, 0, 0, 1, 0, 14.925); opacity: 0.05; transform-origin: 95.92px 1.78906px; animation: 1.66667s linear 0.916667s 1 normal forwards running float-btt-in-ff05b9db-5156-4c18-bb88-d4e26f2b86c7;"><path d="M206.16-18.80L206.16-18.80L208.48-18.80L208.48-24.96L208.48-24.96Q208.48-32.56 207.64-35.16L207.64-35.16L207.64-35.16Q206.80-37.76 204.40-37.76L204.40-37.76L204.40-37.76Q202.96-37.76 201.80-37L201.80-37L201.80-37Q200.64-36.24 200.64-34.92L200.64-34.92L200.64-34.92Q200.64-33.60 201.12-32.24L201.12-32.24L203.12-32.24L203.12-32.24Q203.76-30.56 203.76-28.20L203.76-28.20L203.76-28.20Q203.76-25.84 201.76-24.12L201.76-24.12L201.76-24.12Q199.76-22.40 196.72-22.40L196.72-22.40L196.72-22.40Q189.84-22.40 189.84-29.04L189.84-29.04L189.84-29.04Q189.84-38.88 206.56-38.88L206.56-38.88L206.56-38.88Q216.08-38.88 219.72-35.64L219.72-35.64L219.72-35.64Q223.36-32.40 223.36-23.76L223.36-23.76L223.36-7.52L223.36-7.52Q223.36-3.36 225.68-3.36L225.68-3.36L225.68-3.36Q228.40-3.36 228.88-11.60L228.88-11.60L230.08-11.52L230.08-11.52Q229.76-4.48 227.44-1.84L227.44-1.84L227.44-1.84Q225.12 0.80 219.84 0.80L219.84 0.80L219.84 0.80Q210.24 0.80 208.80-5.12L208.80-5.12L208.80-5.12Q207.76-2.08 205.68-0.64L205.68-0.64L205.68-0.64Q203.60 0.80 199.60 0.80L199.60 0.80L199.60 0.80Q187.76 0.80 187.76-8.88L187.76-8.88L187.76-8.88Q187.76-14.56 192.28-16.68L192.28-16.68L192.28-16.68Q196.80-18.80 206.16-18.80zM202.96-8.96L202.96-8.96Q202.96-4.80 203.40-3.60L203.40-3.60L203.40-3.60Q203.84-2.40 205.08-2.40L205.08-2.40L205.08-2.40Q206.32-2.40 207.40-4.44L207.40-4.44L207.40-4.44Q208.48-6.48 208.48-10.08L208.48-10.08L208.48-17.52L207.92-17.52L207.92-17.52Q202.96-17.52 202.96-10.24L202.96-10.24L202.96-8.96" fill="#134284" stroke="none" stroke-width="none" transform="translate(-112.99996948242188,20.829063110351562)" style="fill: rgb(19, 66, 132);"></path></g></g>
</g>
</g>
<style id="float-btt-in-ff05b9db-5156-4c18-bb88-d4e26f2b86c7" data-anikit="">@keyframes float-btt-in-ff05b9db-5156-4c18-bb88-d4e26f2b86c7
{
  0% {
    animation-timing-function: cubic-bezier(0.2242,0.7499,0.3142,0.8148);
    transform: translate(0px,14.925px) rotate(0deg) scale(1,1) skewX(0deg) skewY(0deg);
    opacity: 0.05;
  }
  100% {
    transform: translate(0px,0px) rotate(0deg) scale(1,1) skewX(0deg) skewY(0deg);
    opacity: 1;
  }
}</style></svg>