<?xml version="1.0" encoding="utf-8"?>
<svg xmlns="http://www.w3.org/2000/svg" style="margin: auto; background: rgb(245, 255, 250); display: block; shape-rendering: auto;" width="239" height="121" preserveAspectRatio="xMidYMid">
<style type="text/css">
  text {
    text-anchor: middle; font-size: 80px; opacity: 0;
  }
</style>
<g style="transform-origin:119.5px 60.5px;transform:scale(1)">
<g transform="translate(119.5,60.5)">
  <g transform="translate(0,0)"><g class="path" style="transform: matrix(1, 0, 0, 1, 0, 14.925); opacity: 0.05; transform-origin: -90.4px -7.43657px; animation: 1.66667s linear 0s 1 normal forwards running float-btt-in-ff05b9db-5156-4c18-bb88-d4e26f2b86c7;"><path d="M3.68-56L50.88-56L51.68-35.92L50.16-35.92L50.16-35.92Q46.64-46.56 43.92-50.44L43.92-50.44L43.92-50.44Q41.20-54.32 36.08-54.32L36.08-54.32L35.12-54.32L35.12-1.68L41.92-1.68L41.92 0L12.72 0L12.72-1.68L19.52-1.68L19.52-54.32L18.48-54.32L18.48-54.32Q13.36-54.32 10.56-50.28L10.56-50.28L10.56-50.28Q7.76-46.24 4.40-35.92L4.40-35.92L2.88-35.92L3.68-56" fill="#134284" stroke="none" stroke-width="none" transform="translate(-117.67999267578125,20.563426252092636)" style="fill: rgb(19, 66, 132);"></path></g><g class="path" style="transform: matrix(1, 0, 0, 1, 0, 14.925); opacity: 0.05; transform-origin: -50.28px -30.4766px; animation: 1.66667s linear 0.157143s 1 normal forwards running float-btt-in-ff05b9db-5156-4c18-bb88-d4e26f2b86c7;"><path d="M67.20-43.60L67.20-43.60L67.20-43.60Q62.96-43.60 61.16-45.76L61.16-45.76L61.16-45.76Q59.36-47.92 59.36-51.12L59.36-51.12L59.36-51.12Q59.36-54.32 61.32-56.40L61.32-56.40L61.32-56.40Q63.28-58.48 67.28-58.48L67.28-58.48L67.28-58.48Q71.28-58.48 73.36-56.60L73.36-56.60L73.36-56.60Q75.44-54.72 75.44-51.24L75.44-51.24L75.44-51.24Q75.44-47.76 73.44-45.68L73.44-45.68L73.44-45.68Q71.44-43.60 67.20-43.60" fill="#134284" stroke="none" stroke-width="none" transform="translate(-117.67999267578125,20.563426252092636)" style="fill: rgb(19, 66, 132);"></path></g><g class="path" style="transform: matrix(1, 0, 0, 1, 0, 14.925); opacity: 0.05; transform-origin: -50.52px 1.52343px; animation: 1.66667s linear 0.314286s 1 normal forwards running float-btt-in-ff05b9db-5156-4c18-bb88-d4e26f2b86c7;"><path d="M55.12-36.64L55.12-38.08L74.72-38.08L74.72-1.44L79.20-1.44L79.20 0L55.44 0L55.44-1.44L59.84-1.44L59.84-36.64L55.12-36.64" fill="#134284" stroke="none" stroke-width="none" transform="translate(-117.67999267578125,20.563426252092636)" style="fill: rgb(19, 66, 132);"></path></g><g class="path" style="transform: matrix(1, 0, 0, 1, 0, 14.925); opacity: 0.05; transform-origin: -18.36px 1.52343px; animation: 1.66667s linear 0.471429s 1 normal forwards running float-btt-in-ff05b9db-5156-4c18-bb88-d4e26f2b86c7;"><path d="M103.20-37.44L103.20-37.44L103.20-37.44Q99.68-37.44 98.16-33.60L98.16-33.60L98.16-33.60Q96.64-29.76 96.64-20.88L96.64-20.88L96.64-16.72L96.64-16.72Q96.64-8.80 98.40-5.36L98.40-5.36L98.40-5.36Q100.16-1.92 104.88-1.92L104.88-1.92L104.88-1.92Q109.60-1.92 112.40-5.12L112.40-5.12L112.40-5.12Q115.20-8.32 116-12.40L116-12.40L117.44-12.24L117.44-12.24Q115.92-5.36 111.84-2.32L111.84-2.32L111.84-2.32Q107.68 0.80 100.40 0.80L100.40 0.80L100.40 0.80Q91.12 0.80 86.16-4.20L86.16-4.20L86.16-4.20Q81.20-9.20 81.20-18.84L81.20-18.84L81.20-18.84Q81.20-28.48 86.84-33.68L86.84-33.68L86.84-33.68Q92.48-38.88 102.56-38.88L102.56-38.88L102.56-38.88Q109.68-38.88 113.44-36.12L113.44-36.12L113.44-36.12Q117.20-33.36 117.20-29.20L117.20-29.20L117.20-29.20Q117.20-25.04 115.40-23.12L115.40-23.12L115.40-23.12Q113.60-21.20 110.44-21.20L110.44-21.20L110.44-21.20Q107.28-21.20 105.36-22.88L105.36-22.88L105.36-22.88Q103.44-24.56 103.44-27.84L103.44-27.84L103.44-27.84Q103.44-29.28 103.84-30.72L103.84-30.72L106.48-30.72L106.48-30.72Q107.04-32.32 107.04-33.60L107.04-33.60L107.04-33.60Q107.04-37.44 103.20-37.44" fill="#134284" stroke="none" stroke-width="none" transform="translate(-117.67999267578125,20.563426252092636)" style="fill: rgb(19, 66, 132);"></path></g><g class="path" style="transform: matrix(1, 0, 0, 1, 0, 14.925); opacity: 0.05; transform-origin: 25px -9.43657px; animation: 1.66667s linear 0.628571s 1 normal forwards running float-btt-in-ff05b9db-5156-4c18-bb88-d4e26f2b86c7;"><path d="M167.04 0L144.80 0L144.80-1.44L148.48-1.44L139.44-20L137.92-19.60L137.92-1.44L141.60-1.44L141.60 0L118.64 0L118.64-1.44L123.04-1.44L123.04-58.56L118.32-58.56L118.32-60L137.92-60L137.92-21.20L139.20-21.68L157.20-36.64L149.68-36.64L149.68-38.08L165.44-38.08L165.44-36.64L159.84-36.64L150.32-28.56L164.16-1.44L167.04-1.44L167.04 0" fill="#134284" stroke="none" stroke-width="none" transform="translate(-117.67999267578125,20.563426252092636)" style="fill: rgb(19, 66, 132);"></path></g><g class="path" style="transform: matrix(1, 0, 0, 1, 0, 14.925); opacity: 0.05; transform-origin: 67.9737px 1.52343px; animation: 1.66667s linear 0.785714s 1 normal forwards running float-btt-in-ff05b9db-5156-4c18-bb88-d4e26f2b86c7;"><path d="M187.28 0.80L187.28 0.80Q176.96 0.80 171.80-4.52L171.80-4.52L171.80-4.52Q166.64-9.84 166.64-19.32L166.64-19.32L166.64-19.32Q166.64-28.80 172.44-33.84L172.44-33.84L172.44-33.84Q178.24-38.88 187.20-38.88L187.20-38.88L187.20-38.88Q205.36-38.88 204.64-20.64L204.64-20.64L182.08-20.64L182.08-17.52L182.08-17.52Q182.08-9.68 184.08-5.68L184.08-5.68L184.08-5.68Q186.08-1.68 191.04-1.68L191.04-1.68L191.04-1.68Q200.32-1.68 203.20-11.60L203.20-11.60L204.64-11.36L204.64-11.36Q203.12-5.60 199.16-2.40L199.16-2.40L199.16-2.40Q195.20 0.80 187.28 0.80L187.28 0.80zM182.16-26.16L182.16-22.24L190.40-22.24L190.40-26.16L190.40-26.16Q190.40-32.64 189.64-35L189.64-35L189.64-35Q188.88-37.36 186.60-37.36L186.60-37.36L186.60-37.36Q184.32-37.36 183.24-34.84L183.24-34.84L183.24-34.84Q182.16-32.32 182.16-26.16L182.16-26.16" fill="#134284" stroke="none" stroke-width="none" transform="translate(-117.67999267578125,20.563426252092636)" style="fill: rgb(19, 66, 132);"></path></g><g class="path" style="transform: matrix(1, 0, 0, 1, 0, 14.925); opacity: 0.05; transform-origin: 105px -5.07657px; animation: 1.66667s linear 0.942857s 1 normal forwards running float-btt-in-ff05b9db-5156-4c18-bb88-d4e26f2b86c7;"><path d="M211.52-11.44L211.52-11.44L211.52-36.64L207.12-36.64L207.12-38.08L211.52-38.08L211.52-48.40L226.40-52.08L226.40-38.08L236.80-38.08L236.80-36.64L226.40-36.64L226.40-9.68L226.40-9.68Q226.40-5.92 227.16-4.16L227.16-4.16L227.16-4.16Q227.92-2.40 230.32-2.40L230.32-2.40L230.32-2.40Q232.72-2.40 234.52-4.80L234.52-4.80L234.52-4.80Q236.32-7.20 236.88-11.36L236.88-11.36L238.24-11.20L238.24-11.20Q237.60-5.68 234.72-2.44L234.72-2.44L234.72-2.44Q231.84 0.80 225.20 0.80L225.20 0.80L225.20 0.80Q218.56 0.80 215.04-1.84L215.04-1.84L215.04-1.84Q211.52-4.48 211.52-11.44" fill="#134284" stroke="none" stroke-width="none" transform="translate(-117.67999267578125,20.563426252092636)" style="fill: rgb(19, 66, 132);"></path></g></g>
</g>
</g>
<style id="float-btt-in-ff05b9db-5156-4c18-bb88-d4e26f2b86c7" data-anikit="">@keyframes float-btt-in-ff05b9db-5156-4c18-bb88-d4e26f2b86c7
{
  0% {
    animation-timing-function: cubic-bezier(0.2242,0.7499,0.3142,0.8148);
    transform: translate(0px,14.925px) rotate(0deg) scale(1,1) skewX(0deg) skewY(0deg);
    opacity: 0.05;
  }
  100% {
    transform: translate(0px,0px) rotate(0deg) scale(1,1) skewX(0deg) skewY(0deg);
    opacity: 1;
  }
}</style></svg>